<svg width="20" height="20" viewBox="0 0 20 20" fill="none" xmlns="http://www.w3.org/2000/svg">
<path id="magnifyingglass" d="M8.34111 16.0356C9.92527 16.0356 11.4098 15.5618 12.6453 14.7525L17.0092 19.0855C17.2981 19.3618 17.6668 19.5 18.0653 19.5C18.8922 19.5 19.5 18.8584 19.5 18.0491C19.5 17.674 19.3705 17.3088 19.0915 17.0325L14.7575 12.7192C15.6542 11.4558 16.1822 9.92597 16.1822 8.26779C16.1822 3.99403 12.6552 0.5 8.34111 0.5C4.03697 0.5 0.5 3.99403 0.5 8.26779C0.5 12.5416 4.02701 16.0356 8.34111 16.0356ZM8.34111 13.9629C5.18275 13.9629 2.59229 11.3966 2.59229 8.26779C2.59229 5.13896 5.18275 2.57273 8.34111 2.57273C11.4995 2.57273 14.0899 5.13896 14.0899 8.26779C14.0899 11.3966 11.4995 13.9629 8.34111 13.9629Z" fill="#9C9C9C"/>
</svg>
